Coordinates
version=1
nRows=17
nColumns=40
inDegrees=yes

Units are S.I. units (second, meters, Newtons, ...)
If the header above contains a line with 'inDegrees', this indicates whether rotational values are in degrees (yes) or radians (no).

endheader
time	pelvis_tilt	pelvis_list	pelvis_rotation	pelvis_tx	pelvis_ty	pelvis_tz	hip_flexion_r	hip_adduction_r	hip_rotation_r	knee_angle_r	knee_angle_r_beta	ankle_angle_r	subtalar_angle_r	mtp_angle_r	hip_flexion_l	hip_adduction_l	hip_rotation_l	knee_angle_l	knee_angle_l_beta	ankle_angle_l	subtalar_angle_l	mtp_angle_l	lumbar_extension	lumbar_bending	lumbar_rotation	arm_flex_r	arm_add_r	arm_rot_r	elbow_flex_r	pro_sup_r	wrist_flex_r	wrist_dev_r	arm_flex_l	arm_add_l	arm_rot_l	elbow_flex_l	pro_sup_l	wrist_flex_l	wrist_dev_l
      4.97500000	    -24.50475292	      2.43444358	      0.50205994	     -0.33868248	      0.87300599	     -1.14761325	      8.98929537	     -1.03437397	      4.11364277	     70.84357693	      1.23645367	     -8.68885560	      0.00000000	      0.00000000	     63.41456010	      5.74790528	     -2.34491416	     66.76572956	      1.16528181	     19.16280097	      0.00000000	      0.00000000	     -7.28637753	     -7.04618266	      5.96563207	     89.95816516	     -6.09504533	     10.56710981	     47.38549235	     76.03029309	      0.00000000	      0.00000000	     89.97074737	     -3.10415935	     16.21808134	     54.12390466	     14.28221245	      0.00000000	      0.00000000
      4.98000000	    -24.40858384	      2.43303342	      0.55042410	     -0.33792830	      0.87464831	     -1.14770439	      8.89310794	     -1.04124341	      4.04323013	     70.76972342	      1.23516468	     -8.71267670	      0.00000000	      0.00000000	     63.08526815	      5.76103218	     -2.38500206	     66.45532494	      1.15986423	     19.07115075	      0.00000000	      0.00000000	     -7.19611397	     -7.04881560	      5.93307643	     89.95793846	     -6.11338879	     10.60818697	     47.27503493	     76.13059263	      0.00000000	      0.00000000	     89.97061630	     -3.09264290	     16.33880556	     54.08017664	     14.36904529	      0.00000000	      0.00000000
      4.98500000	    -24.29962742	      2.35544156	      0.61697646	     -0.33733901	      0.87643060	     -1.14791877	      8.82926002	     -1.04608048	      3.80738975	     70.76259798	      1.23504032	     -8.73377366	      0.00000000	      0.00000000	     62.75824792	      5.75343299	     -2.36360625	     66.11779049	      1.15397314	     18.98626283	      0.00000000	      0.00000000	     -7.13294634	     -6.94198405	      5.92986244	     89.95770564	     -6.13306552	     10.63543102	     47.15846662	     76.19753303	      0.00000000	      0.00000000	     89.97051252	     -3.04926497	     16.43373705	     54.06211136	     14.43293871	      0.00000000	      0.00000000
      4.99000000	    -24.20271670	      2.29598221	      0.67839774	     -0.33663191	      0.87824371	     -1.14823081	      8.72745434	     -1.03517873	      3.66140961	     70.65936166	      1.23323851	     -8.76251370	      0.00000000	      0.00000000	     62.39703914	      5.77158875	     -2.30923604	     65.73532143	      1.14729779	     18.88686408	      0.00000000	      0.00000000	     -7.06985340	     -6.84675852	      5.86100723	     89.95741007	     -6.09978731	     10.65964006	     47.10674918	     76.28097551	      0.00000000	      0.00000000	     89.97047585	     -3.07112080	     16.51156817	     53.94509557	     14.49983257	      0.00000000	      0.00000000
      4.99500000	    -24.05540911	      2.24067907	      0.70211211	     -0.33612711	      0.88010260	     -1.14836182	      8.63741137	     -1.00478116	      3.56091165	     70.62485219	      1.23263620	     -8.82415509	      0.00000000	      0.00000000	     62.01715927	      5.77191947	     -2.22114523	     65.36733774	      1.14087527	     18.71135348	      0.00000000	      0.00000000	     -7.06093152	     -6.76381171	      5.84996430	     89.95733751	     -6.06773889	     10.66347703	     47.04009836	     76.39402796	      0.00000000	      0.00000000	     89.97043610	     -3.09331287	     16.58657731	     53.94080861	     14.60986196	      0.00000000	      0.00000000
      5.00000000	    -23.94006512	      2.16065220	      0.71776242	     -0.33561604	      0.88186953	     -1.14844578	      8.57133629	     -0.92716615	      3.47977865	     70.63394831	      1.23279496	     -8.86453198	      0.00000000	      0.00000000	     61.68912811	      5.71107969	     -2.20730627	     65.05651429	      1.13545037	     18.61904733	      0.00000000	      0.00000000	     -7.01951093	     -6.65583010	      5.88053341	     89.95717340	     -6.06447642	     10.64611320	     46.98483943	     76.47244126	      0.00000000	      0.00000000	     89.97034915	     -3.07704208	     16.69428178	     53.92159600	     14.69165130	      0.00000000	      0.00000000
      5.00500000	    -23.85654725	      2.06275972	      0.69759940	     -0.33503595	      0.88366713	     -1.14853828	      8.55528205	     -0.89810934	      3.33154792	     70.61000435	      1.23237706	     -8.87795325	      0.00000000	      0.00000000	     61.37743715	      5.60973370	     -2.17650710	     64.72872733	      1.12972941	     18.49212931	      0.00000000	      0.00000000	     -6.93572846	     -6.53884190	      5.91211875	     89.95695150	     -6.06294045	     10.67600523	     46.92252004	     76.53115704	      0.00000000	      0.00000000	     89.97026448	     -3.08791000	     16.73899538	     53.90034040	     14.74823549	      0.00000000	      0.00000000
      5.01000000	    -23.75069983	      1.98007191	      0.70365977	     -0.33478397	      0.88564755	     -1.14879061	      8.54805712	     -0.82098212	      3.29274087	     70.61429786	      1.23245200	     -8.89104295	      0.00000000	      0.00000000	     61.05041047	      5.58073309	     -2.11542416	     64.31943823	      1.12258597	     18.32940759	      0.00000000	      0.00000000	     -6.90832699	     -6.41099335	      5.95642456	     89.95686494	     -6.04300603	     10.65913881	     46.85583964	     76.58879501	      0.00000000	      0.00000000	     89.97021255	     -3.05583699	     16.80930280	     53.88440624	     14.80926211	      0.00000000	      0.00000000
      5.01500000	    -23.65047299	      1.89669714	      0.79704758	     -0.33363238	      0.88713620	     -1.14899816	      8.41531970	     -0.79825039	      3.07886034	     70.55306267	      1.23138324	     -8.89400328	      0.00000000	      0.00000000	     60.67375028	      5.58033899	     -2.06238867	     63.94858383	      1.11611334	     18.16155432	      0.00000000	      0.00000000	     -6.79229743	     -6.29379635	      5.90965418	     89.95643190	     -6.07087621	     10.69487624	     46.77156112	     76.67254818	      0.00000000	      0.00000000	     89.97007480	     -3.05716034	     16.94758425	     53.77524914	     14.88521805	      0.00000000	      0.00000000
      5.02000000	    -23.52070211	      1.81987333	      0.78659946	     -0.33307941	      0.88904895	     -1.14916671	      8.33944456	     -0.75831819	      3.01199007	     70.52682612	      1.23092533	     -8.85914391	      0.00000000	      0.00000000	     60.31973655	      5.55955719	     -1.94423342	     63.60911883	      1.11018856	     18.01546643	      0.00000000	      0.00000000	     -6.76055043	     -6.18587423	      5.94019725	     89.95623972	     -6.05164561	     10.70370056	     46.74967530	     76.76157500	      0.00000000	      0.00000000	     89.97001396	     -3.05835879	     17.03633156	     53.78019405	     14.97741088	      0.00000000	      0.00000000
      5.02500000	    -23.39308602	      1.71831026	      0.77290910	     -0.33245715	      0.89079265	     -1.14930127	      8.27263801	     -0.70133350	      2.88264072	     70.54524544	      1.23124680	     -8.86253717	      0.00000000	      0.00000000	     59.97605524	      5.48807501	     -1.87911780	     63.30871583	      1.10494554	     17.92167050	      0.00000000	      0.00000000	     -6.72261350	     -6.05219077	      5.98991287	     89.95599287	     -6.05600545	     10.73098344	     46.65796690	     76.84002593	      0.00000000	      0.00000000	     89.96992278	     -3.03970189	     17.13824058	     53.74828606	     15.05754262	      0.00000000	      0.00000000
      5.03000000	    -23.29968759	      1.63011250	      0.74694281	     -0.33182583	      0.89260195	     -1.14941611	      8.24930390	     -0.65197322	      2.80078877	     70.53532103	      1.23107359	     -8.85426288	      0.00000000	      0.00000000	     59.64486067	      5.41385589	     -1.81928515	     62.94239935	      1.09855211	     17.79782250	      0.00000000	      0.00000000	     -6.65111012	     -5.92047511	      6.04175972	     89.95572207	     -6.03454765	     10.76963332	     46.60393501	     76.91509488	      0.00000000	      0.00000000	     89.96982008	     -3.05775420	     17.22892594	     53.71586037	     15.13327615	      0.00000000	      0.00000000
      5.03500000	    -23.11708602	      1.54863603	      0.72664099	     -0.33100173	      0.89468825	     -1.14970242	      8.07436984	     -0.58795587	      2.78487064	     70.42744699	      1.22919083	     -8.85293302	      0.00000000	      0.00000000	     59.17381847	      5.39429833	     -1.68627502	     62.51540275	      1.09109961	     17.56937608	      0.00000000	      0.00000000	     -6.65094252	     -5.64390336	      5.91150986	     89.95572133	     -5.62851060	     10.35015737	     46.33770741	     80.85890794	      0.00000000	      0.00000000	     89.97007139	     -3.80504371	     14.59662873	     50.24383077	     78.11711659	      0.00000000	      0.00000000
      5.04000000	    -23.04668207	      1.43636773	      0.67236140	     -0.33050411	      0.89642166	     -1.14977600	      8.09906461	     -0.53946757	      2.68965715	     70.46006953	      1.22976020	     -8.81514187	      0.00000000	      0.00000000	     58.89716109	      5.26091488	     -1.65903074	     62.19888335	      1.08557531	     17.47098475	      0.00000000	      0.00000000	     -6.54379231	     -5.50420966	      5.97249619	     89.95557077	     -5.59087458	     10.38070021	     46.26877530	     80.86055489	      0.00000000	      0.00000000	     89.96999799	     -3.80662333	     14.62411449	     50.22545983	     78.11927802	      0.00000000	      0.00000000
      5.04500000	    -22.95992726	      1.33937017	      0.61609236	     -0.32986389	      0.89819204	     -1.14994380	      8.08906011	     -0.48369005	      2.62804059	     70.48304369	      1.23016118	     -8.78594128	      0.00000000	      0.00000000	     58.58425073	      5.16295832	     -1.61244831	     61.88224776	      1.08004897	     17.38801970	      0.00000000	      0.00000000	     -6.45600295	     -5.37525924	      6.04596395	     89.95534512	     -5.59129255	     10.43031541	     46.20910081	     80.86701046	      0.00000000	      0.00000000	     89.96988549	     -3.80947677	     14.66797081	     50.18585955	     78.12405507	      0.00000000	      0.00000000
      5.05000000	    -22.85840207	      1.23062644	      0.61131722	     -0.32909780	      0.89990022	     -1.15002521	      8.05290622	     -0.41504267	      2.52214833	     70.51468683	      1.23071346	     -8.72994521	      0.00000000	      0.00000000	     58.23083252	      5.07562313	     -1.55088830	     61.51307276	      1.07360565	     17.24270495	      0.00000000	      0.00000000	     -6.36754465	     -5.24836256	      6.07964545	     89.95496646	     -5.57716074	     10.49966601	     46.11081607	     80.87698314	      0.00000000	      0.00000000	     89.96974046	     -3.79836663	     14.74217059	     50.13958479	     78.13323681	      0.00000000	      0.00000000
      5.05500000	    -22.74604526	      1.15094818	      0.56132646	     -0.32846609	      0.90159171	     -1.15018020	      8.01805608	     -0.39423771	      2.44683716	     70.54321876	      1.23121143	     -8.69722445	      0.00000000	      0.00000000	     57.88485623	      5.00119736	     -1.46964948	     61.17531247	      1.06771062	     17.11298051	      0.00000000	      0.00000000	     -6.29650145	     -5.13031960	      6.15066856	     89.95473588	     -5.55870518	     10.55473376	     46.01218636	     80.88865996	      0.00000000	      0.00000000	     89.96967788	     -3.81341860	     14.80464173	     50.10503740	     78.14388020	      0.00000000	      0.00000000
